<svg width="24" height="24" viewBox="0 0 24 24" fill="none" xmlns="http://www.w3.org/2000/svg">
<path fill-rule="evenodd" clip-rule="evenodd" d="M5.99606 12.782C4.99906 12.592 4.06106 12.035 3.46906 11.006C2.78106 9.811 2.85106 8.261 3.65606 7.143C4.77906 5.583 6.78006 5.208 8.35206 5.971C8.67606 4.281 10.1831 3 12.0001 3C13.8171 3 15.3241 4.281 15.6471 5.971C17.2161 5.21 19.2111 5.581 20.3351 7.131C21.1441 8.247 21.2161 9.794 20.5361 10.993C19.9451 12.035 19.0041 12.588 18.0041 12.777L17.9971 19C17.9961 20.104 17.1011 20.998 15.9971 20.998L7.98906 21C6.88306 21 5.98706 20.103 5.98906 18.998L5.99606 12.782Z" stroke="white" stroke-width="1.5" stroke-linecap="round" stroke-linejoin="round"/>
<path d="M18 16.5H6" stroke="white" stroke-width="1.5" stroke-linecap="round" stroke-linejoin="round"/>
</svg>
